<svg xmlns="http://www.w3.org/2000/svg" width="127.204" height="145.376" viewBox="0 0 127.204 145.376">
  <path id="Icon_awesome-calendar" data-name="Icon awesome-calendar" d="M3.407,54.516H123.8a3.417,3.417,0,0,1,3.407,3.407v73.824a13.633,13.633,0,0,1-13.629,13.629H13.629A13.633,13.633,0,0,1,0,131.747V57.923A3.417,3.417,0,0,1,3.407,54.516ZM127.2,42.023V31.8a13.633,13.633,0,0,0-13.629-13.629H99.946V3.407A3.417,3.417,0,0,0,96.539,0H85.182a3.417,3.417,0,0,0-3.407,3.407V18.172H45.43V3.407A3.417,3.417,0,0,0,42.023,0H30.665a3.417,3.417,0,0,0-3.407,3.407V18.172H13.629A13.633,13.633,0,0,0,0,31.8V42.023A3.417,3.417,0,0,0,3.407,45.43H123.8A3.417,3.417,0,0,0,127.2,42.023Z" fill="#173b54"/>
</svg>
