<svg xmlns="http://www.w3.org/2000/svg" width="86" height="98" viewBox="0 0 86 98">
  <g id="Group_331" data-name="Group 331" transform="translate(-916 -958)">
    <path id="Path_233" data-name="Path 233" d="M-6061.413,5292.548l-42.7,24.11v49.78l42.7,24.11,43.3-24.11v-49.25Z" transform="translate(7020.109 -4334.548)" fill="#fff"/>
    <path id="Icon_awesome-long-arrow-alt-down" data-name="Icon awesome-long-arrow-alt-down" d="M11.813,24.324V3.094a.844.844,0,0,0-.844-.844H7.031a.844.844,0,0,0-.844.844v21.23H2.949A1.688,1.688,0,0,0,1.756,27.2l6.051,6.051a1.687,1.687,0,0,0,2.386,0L16.244,27.2a1.688,1.688,0,0,0-1.193-2.881H11.813Z" transform="translate(951 989.5)" fill="#e63312"/>
  </g>
</svg>
