<svg id="Group_266" data-name="Group 266" xmlns="http://www.w3.org/2000/svg" xmlns:xlink="http://www.w3.org/1999/xlink" width="256.891" height="65.529" viewBox="0 0 256.891 65.529">
  <defs>
    <clipPath id="clip-path">
      <rect id="Rectangle_75" data-name="Rectangle 75" width="256.891" height="65.529" fill="none"/>
    </clipPath>
    <clipPath id="clip-path-2">
      <rect id="Rectangle_74" data-name="Rectangle 74" width="256.891" height="65.576" fill="none"/>
    </clipPath>
  </defs>
  <g id="Group_117" data-name="Group 117" clip-path="url(#clip-path)">
    <path id="Path_114" data-name="Path 114" d="M409.872,104.023l-18.5,65.529H559.538V104.023Z" transform="translate(-302.647 -104.023)" fill="#fff"/>
    <path id="Path_115" data-name="Path 115" d="M356.831,104.023v65.529H445.56l18.5-65.529Z" transform="translate(-356.831 -104.023)" fill="#0a2d58"/>
    <g id="Group_116" data-name="Group 116" transform="translate(0 0)">
      <g id="Group_115" data-name="Group 115" clip-path="url(#clip-path-2)">
        <path id="Path_116" data-name="Path 116" d="M458.9,134.245a11.146,11.146,0,1,1,0-14.315l5.016-2.9a16.882,16.882,0,1,0,0,20.109Z" transform="translate(-236.614 -94.324)" fill="#0a2d58"/>
        <path id="Path_117" data-name="Path 117" d="M416.879,110.528h5.715v27.03h13.651v5.08H416.879Z" transform="translate(-262.643 -93.818)" fill="#0a2d58"/>
        <path id="Path_118" data-name="Path 118" d="M417.341,117.609a11.276,11.276,0,0,0-2.825-1.844,7.655,7.655,0,0,0-3.334-.794,8.194,8.194,0,0,0-2,.252,6.057,6.057,0,0,0-1.813.771,4.236,4.236,0,0,0-1.338,1.361,3.739,3.739,0,0,0-.524,2.019,3.6,3.6,0,0,0,.455,1.86,4.115,4.115,0,0,0,1.248,1.318,8.488,8.488,0,0,0,1.929.953q1.133.408,2.494.817,1.545.5,3.2,1.133a12.517,12.517,0,0,1,3.041,1.68,8.348,8.348,0,0,1,2.268,2.633,8.013,8.013,0,0,1,.886,3.948,10.1,10.1,0,0,1-.953,4.516,9.313,9.313,0,0,1-2.543,3.2,10.819,10.819,0,0,1-3.722,1.906,15.633,15.633,0,0,1-4.493.637,16.9,16.9,0,0,1-6.126-1.158,11.834,11.834,0,0,1-4.9-3.426l3.424-3.912a15.077,15.077,0,0,0,3.814,2.687,8.864,8.864,0,0,0,3.881.953,8.734,8.734,0,0,0,2.042-.249,5.361,5.361,0,0,0,1.883-.84,4.7,4.7,0,0,0,1.361-1.474,4.277,4.277,0,0,0,.521-2.2,3.585,3.585,0,0,0-.588-2.109,5.316,5.316,0,0,0-1.59-1.454,11.394,11.394,0,0,0-2.361-1.066l-2.859-.953a27.558,27.558,0,0,1-2.9-1.089,9.611,9.611,0,0,1-2.61-1.677,8.069,8.069,0,0,1-1.883-2.566,8.741,8.741,0,0,1-.727-3.789,8.3,8.3,0,0,1,1.02-4.22A9.06,9.06,0,0,1,403.4,112.5a11.934,11.934,0,0,1,3.766-1.724,16.478,16.478,0,0,1,4.289-.568,15.248,15.248,0,0,1,4.968.863,12.168,12.168,0,0,1,4.379,2.587Z" transform="translate(-291.798 -94.324)" fill="#0a2d58"/>
        <path id="Path_119" data-name="Path 119" d="M443.909,110.528a18.987,18.987,0,0,1,5.361,4.988h5.009v27.121h5.715V115.516h9.843v-4.988Z" transform="translate(-220.245 -93.819)" fill="#0a2d58"/>
        <path id="Path_120" data-name="Path 120" d="M425.192,110.528h21.27v4.988H430.906v8.163h13.569v4.808H430.906v9.07h15.555v5.08h-21.27Z" transform="translate(-249.604 -93.818)" fill="#0a2d58"/>
        <path id="Path_121" data-name="Path 121" d="M407.825,110.528h21.27v4.988H413.539v8.163h13.569v4.808H413.539v9.07h15.555v5.08h-21.27Z" transform="translate(-276.845 -93.818)" fill="#0a2d58"/>
        <path id="Path_122" data-name="Path 122" d="M370.13,123.419s8.746,1.59,8.746-4.074c0-4.909-9.776-3.406-14.587-.6a.477.477,0,0,1-.717-.414v-5.759a.8.8,0,0,1,.557-.763A37.156,37.156,0,0,1,374.7,110.1c5.862,0,11.826,2.982,11.826,8.546s-5.268,7.254-5.268,7.254,5.764.8,5.764,8.646c0,6.707-7.153,9.342-13.018,9.342-5.825,0-9.244-1.176-10.618-1.785a1.184,1.184,0,0,1-.709-1.086v-5.528a.373.373,0,0,1,.529-.339c1.482.7,5.741,2.576,8.415,2.576,3.278,0,7.652-.347,7.652-4.272,0-4.77-3.976-4.572-9.044-4.572" transform="translate(-347.659 -94.484)" fill="#fff"/>
        <path id="Path_123" data-name="Path 123" d="M372.679,110.414l9.167,32.419h7.6L395.41,121l5.888,21.836h7.676l9.241-32.121h-8.5l-4.77,19.153-5.068-19.451H391.46l-5.366,19.377-4.7-19.377Z" transform="translate(-331.973 -93.998)" fill="#fff"/>
      </g>
    </g>
    <text id="_" data-name="®" transform="translate(87.184 16.799)" fill="#fff" font-size="12" font-family="SegoeUI, Segoe UI"><tspan x="0" y="0">®</tspan></text>
  </g>
</svg>
