<svg id="Group_264" data-name="Group 264" xmlns="http://www.w3.org/2000/svg" xmlns:xlink="http://www.w3.org/1999/xlink" width="191.112" height="65.529" viewBox="0 0 191.112 65.529">
  <defs>
    <clipPath id="clip-path">
      <rect id="Rectangle_94" data-name="Rectangle 94" width="191.112" height="65.529" fill="none"/>
    </clipPath>
    <clipPath id="clip-path-2">
      <rect id="Rectangle_93" data-name="Rectangle 93" width="191.112" height="65.552" fill="none"/>
    </clipPath>
  </defs>
  <g id="Group_162" data-name="Group 162">
    <g id="Group_161" data-name="Group 161" clip-path="url(#clip-path)">
      <g id="Group_160" data-name="Group 160">
        <g id="Group_159" data-name="Group 159" clip-path="url(#clip-path-2)">
          <path id="Path_160" data-name="Path 160" d="M515.112,108.3a3.823,3.823,0,0,1-7.546-.578,2.2,2.2,0,0,1-.013-.229v-.049q0-.1.015-.193a3.783,3.783,0,0,1,.108-.729l.205-1.3L495.773,92.292l-9.5,20.685a3.824,3.824,0,1,1-2.468-.9,3.946,3.946,0,0,1,.609.051l9.853-21.445-11.1-11.859a3.843,3.843,0,1,1,1.492-1.4l10.531,11.25,7.6-16.539a3.824,3.824,0,1,1,2.466.9,3.936,3.936,0,0,1-.606-.051l-7.95,17.3,11.592,12.386.29-1.837a1.513,1.513,0,0,1-.272-.226l-9.255-9.886a1.382,1.382,0,0,1-.244-1.523l5.741-12.455a1.382,1.382,0,0,1,1.171-.8,6.693,6.693,0,1,0-5.759-2.658,1.389,1.389,0,0,1,.152,1.41l-4.441,9.63a1.384,1.384,0,0,1-2.265.367l-5.371-5.741a1.377,1.377,0,0,1-.3-1.384A6.69,6.69,0,1,0,483.1,81.9a1.364,1.364,0,0,1,.352-.046,1.383,1.383,0,0,1,1.01.437l7.5,8.014a1.387,1.387,0,0,1,.247,1.526l-7.652,16.593a1.386,1.386,0,0,1-1.169.8,6.692,6.692,0,1,0,5.756,2.656,1.382,1.382,0,0,1-.149-1.41L495.344,96.7a1.382,1.382,0,0,1,2.266-.365l7.128,7.613a1.382,1.382,0,0,1,.3,1.384,6.691,6.691,0,1,0,11.227-2.438c-.067-.069-.139-.139-.208-.205-.439,2.764-.817,5.158-.817,5.158a2.223,2.223,0,0,1-.128.457" transform="translate(-471.934 -59.83)" fill="#fff"/>
          <path id="Path_161" data-name="Path 161" d="M518.963,103.643a8.072,8.072,0,1,1-13.547,2.941l-7.128-7.613-6.347,13.767a8.072,8.072,0,1,1-6.95-3.206l7.652-16.6-7.5-8.014a8.072,8.072,0,1,1,5.589-5.23l5.371,5.741,4.441-9.63a8.071,8.071,0,1,1,6.948,3.206l-5.743,12.455,8.784,9.383.272-1.731-7.41-7.916,5.027-10.9a9.457,9.457,0,1,0-9.463-4.364l-3.252,7.051-3.432-3.665a9.457,9.457,0,1,0-7.608,7.12L491,93.2l-6.932,15.036a9.46,9.46,0,1,0,9.46,4.367l5.16-11.191,5.186,5.54a9.459,9.459,0,1,0,14.371-5.712c-.08.5-.159,1.012-.241,1.526a7.887,7.887,0,0,1,.963.873" transform="translate(-473.623 -61.521)" fill="#c12270"/>
          <path id="Path_162" data-name="Path 162" d="M517.111,103.739a6.69,6.69,0,1,1-11.227,2.438,1.382,1.382,0,0,0-.3-1.384l-7.128-7.613a1.382,1.382,0,0,0-2.266.365l-6.347,13.768a1.388,1.388,0,0,0,.149,1.41,6.688,6.688,0,1,1-5.756-2.656,1.386,1.386,0,0,0,1.169-.8l7.652-16.593a1.387,1.387,0,0,0-.247-1.526l-7.5-8.011a1.375,1.375,0,0,0-1.361-.393,6.69,6.69,0,1,1,4.629-4.333,1.377,1.377,0,0,0,.3,1.384l5.371,5.741a1.384,1.384,0,0,0,2.265-.367l4.441-9.63a1.389,1.389,0,0,0-.152-1.41,6.687,6.687,0,1,1,5.759,2.658,1.382,1.382,0,0,0-1.171.8l-5.741,12.455a1.382,1.382,0,0,0,.244,1.523l9.255,9.886a1.34,1.34,0,0,0,.275.223l.265-1.672-8.784-9.383,5.743-12.455a8.075,8.075,0,1,0-6.948-3.206l-4.441,9.63-5.371-5.741a8.076,8.076,0,1,0-5.589,5.23l7.5,8.014-7.652,16.593a8.076,8.076,0,1,0,6.95,3.208l6.347-13.767,7.128,7.613a8.073,8.073,0,1,0,13.547-2.941,7.887,7.887,0,0,0-.963-.873c-.085.542-.17,1.081-.254,1.611.069.067.141.134.208.205" transform="translate(-472.781 -60.675)" fill="#c12270"/>
          <path id="Path_163" data-name="Path 163" d="M536.42,76.277a1.205,1.205,0,0,1-1.13.989.82.82,0,0,1-.817-.989,1.177,1.177,0,0,1,1.125-.956.8.8,0,0,1,.822.956" transform="translate(-378.201 -39.829)" fill="#fff"/>
          <path id="Path_164" data-name="Path 164" d="M495.949,71.556h.08a9.614,9.614,0,0,1,7.138-3.267c5.638,0,8.42,4.86,7.58,10.172-.868,5.474-5.07,10.092-10.832,10.092a6.779,6.779,0,0,1-6.067-3.229h-.08l-2.137,13.482h-3.267l4.749-29.988h3.267Zm-1.22,6.66c-.593,3.758,1.048,7.313,5.135,7.313,4.207,0,6.951-3.393,7.564-7.272.609-3.843-1.31-6.945-5.353-6.945-3.8,0-6.776,3.308-7.346,6.9" transform="translate(-450.506 -50.859)" fill="#fff"/>
          <path id="Path_165" data-name="Path 165" d="M501.548,79.113c-.521,3.555,1.557,6.416,5.276,6.416,2.777,0,4.839-1.675,6.47-3.963l2.525,1.593a11.686,11.686,0,0,1-9.719,5.394c-5.72,0-8.7-4.372-7.829-9.886.9-5.679,4.952-10.377,10.958-10.377,6.17,0,8.628,5.106,7.395,10.824Zm12.083-2.777a4.822,4.822,0,0,0-4.842-5.024,7.425,7.425,0,0,0-6.637,5.024Z" transform="translate(-435.202 -50.859)" fill="#fff"/>
          <path id="Path_166" data-name="Path 166" d="M512.441,70.9h.082c1.382-1.513,2.538-2.615,4.662-2.615a5.063,5.063,0,0,1,2.8.9l-2.027,2.982a2.682,2.682,0,0,0-1.824-.858c-3.6,0-4.49,4.616-4.885,7.107l-1.521,9.6h-3.267l3.041-19.2h3.267Z" transform="translate(-422.12 -50.859)" fill="#fff"/>
          <path id="Path_167" data-name="Path 167" d="M515.371,91.912H512.1l2.562-16.177h-2l.479-3.023h2l1.094-6.9H519.5l-1.094,6.9h3.432l-.478,3.023h-3.432Z" transform="translate(-413.272 -54.751)" fill="#fff"/>
          <path id="Path_168" data-name="Path 168" d="M519.533,93.534h-3.27l3.041-19.2h3.27Zm4.88-26.433a2.833,2.833,0,0,1-2.7,2.33,1.936,1.936,0,0,1-1.96-2.33,2.866,2.866,0,0,1,2.7-2.327,1.956,1.956,0,0,1,1.96,2.327" transform="translate(-406.745 -56.372)" fill="#fff"/>
          <path id="Path_169" data-name="Path 169" d="M538.8,84.673,538.32,87.7H518.465l16.412-16.178H523.6l.479-3.023h17.853L525.562,84.673Z" transform="translate(-403.29 -50.535)" fill="#fff"/>
          <path id="Path_170" data-name="Path 170" d="M530.763,79.113c-.524,3.555,1.556,6.416,5.273,6.416,2.779,0,4.842-1.675,6.47-3.963l2.528,1.593a11.693,11.693,0,0,1-9.719,5.394c-5.72,0-8.7-4.372-7.832-9.886.9-5.679,4.952-10.377,10.957-10.377,6.17,0,8.628,5.106,7.4,10.824Zm12.082-2.777A4.825,4.825,0,0,0,538,71.312a7.422,7.422,0,0,0-6.637,5.024Z" transform="translate(-389.381 -50.859)" fill="#fff"/>
          <path id="Path_171" data-name="Path 171" d="M541.188,72.807l2.2,8.281h-1.063l-.483-1.834h-3.175L537.6,81.088H536.39Zm-.347,2.671-1.67,2.892H541.6Z" transform="translate(-375.174 -43.772)" fill="#fff"/>
          <path id="Path_172" data-name="Path 172" d="M543.463,72.974l-.313,1.02a2.633,2.633,0,0,0-.688-.139c-.272,0-.434.172-.488.514l-.265,1.729h1.266l-.17.989H541.56l-.614,4.025h-1.063l.606-4.025H539.5l.149-.989h.989l.282-1.885a1.671,1.671,0,0,1,.519-1.038,1.531,1.531,0,0,1,1.058-.383,3.051,3.051,0,0,1,.966.182" transform="translate(-370.296 -43.795)" fill="#fff"/>
          <path id="Path_173" data-name="Path 173" d="M541.057,79.17l.745-5.014h1.089l-.157,1.063a3.993,3.993,0,0,1,.352-.524,1.716,1.716,0,0,1,.56-.534,1.533,1.533,0,0,1,.678-.131,2.573,2.573,0,0,1,.809.164l-.49,1.038a2.043,2.043,0,0,0-.745-.175,1.157,1.157,0,0,0-.935.39,2.776,2.776,0,0,0-.473,1.336l-.357,2.386Z" transform="translate(-367.854 -41.854)" fill="#fff"/>
          <path id="Path_174" data-name="Path 174" d="M543.533,75.872H544.6l-.714,5.014h-1.063Zm.208-2.253a.68.68,0,0,1,.681-.683.67.67,0,0,1,.485.2.648.648,0,0,1,.2.483.685.685,0,1,1-1.369,0" transform="translate(-365.09 -43.57)" fill="#fff"/>
          <path id="Path_175" data-name="Path 175" d="M547.774,77.775l-.187,1.269a4.208,4.208,0,0,1-1.21.27,2.216,2.216,0,0,1-1.711-.768,2.7,2.7,0,0,1-.7-1.885,2.546,2.546,0,0,1,.76-1.862,2.49,2.49,0,0,1,1.831-.768,3.273,3.273,0,0,1,1.6.457l-.169,1.133a2.965,2.965,0,0,0-1.42-.527,1.477,1.477,0,0,0-1.1.47,1.637,1.637,0,0,0-.051,2.214,1.229,1.229,0,0,0,.953.452,3.31,3.31,0,0,0,1.4-.455" transform="translate(-363.289 -41.854)" fill="#fff"/>
          <path id="Path_176" data-name="Path 176" d="M550.5,74.156h1.063l-.732,5.014h-1.076l.08-.537a2.292,2.292,0,0,1-1.58.681,2.325,2.325,0,0,1-1.739-.773,2.566,2.566,0,0,1-.735-1.831,2.611,2.611,0,0,1,.771-1.89,2.49,2.49,0,0,1,1.842-.789,2.129,2.129,0,0,1,1.944,1.217Zm-.27,2.4a1.587,1.587,0,0,0-.483-1.158,1.586,1.586,0,0,0-2.325.044,1.825,1.825,0,0,0-.49,1.282,1.7,1.7,0,0,0,.462,1.223,1.554,1.554,0,0,0,1.171.483,1.526,1.526,0,0,0,1.192-.527,1.931,1.931,0,0,0,.473-1.346" transform="translate(-360.449 -41.854)" fill="#fff"/>
        </g>
      </g>
    </g>
  </g>
</svg>
