<svg id="Icon_awesome-facebook-square" data-name="Icon awesome-facebook-square" xmlns="http://www.w3.org/2000/svg" width="59.195" height="59.195" viewBox="0 0 59.195 59.195">
  <path id="Icon_awesome-facebook-square-2" data-name="Icon awesome-facebook-square" d="M52.852,2.25H6.342A6.342,6.342,0,0,0,0,8.592V55.1a6.342,6.342,0,0,0,6.342,6.342H24.477V41.32H16.153V31.847h8.324v-7.22c0-8.212,4.889-12.748,12.377-12.748a50.43,50.43,0,0,1,7.336.64v8.06H40.058c-4.071,0-5.341,2.526-5.341,5.117v6.151h9.088L42.352,41.32H34.717V61.445H52.852A6.342,6.342,0,0,0,59.195,55.1V8.592A6.342,6.342,0,0,0,52.852,2.25Z" transform="translate(0 -2.25)" fill="#fff"/>
</svg>
