<svg xmlns="http://www.w3.org/2000/svg" width="210.805" height="137" viewBox="0 0 210.805 137">
  <g id="ionic-ios-people" transform="translate(-2.215 -7.748)">
    <path id="Path_246" data-name="Path 246" d="M117.4,113.151c-5.258-1.878-13.85-1.972-17.653-3.427-2.629-1.033-6.808-2.16-8.169-3.8S90.213,92.54,90.213,92.54a21.615,21.615,0,0,0,4.648-6.573c1.362-3.427,2.254-12.911,2.254-12.911s3.1,1.315,4.319-4.883c1.033-5.352,3-8.169,2.488-12.113-.563-3.944-2.723-3-2.723-3s2.723-3.991,2.723-17.559c0-13.991-10.564-27.747-30.33-27.747-19.719,0-30.377,13.8-30.377,27.747,0,13.568,2.676,17.559,2.676,17.559s-2.207-.939-2.723,3c-.563,3.944,1.408,6.761,2.488,12.113,1.221,6.244,4.319,4.883,4.319,4.883s.892,9.437,2.254,12.911a21.615,21.615,0,0,0,4.648,6.573s0,11.737-1.362,13.381-5.54,2.77-8.169,3.756C43.592,111.132,35,111.32,29.694,113.2c-5.258,1.878-21.5,10.423-21.5,31.55H138.853C138.9,123.574,122.655,115.029,117.4,113.151Z" transform="translate(33.931 0)" fill="#173b54"/>
    <path id="Path_247" data-name="Path 247" d="M53.155,70.646s11.221-.376,15.681-4.366C61.559,55.247,65.5,42.382,64,30.363c-1.5-11.972-8.31-19.156-21.926-19.156h-.188c-13.146,0-20.235,7.136-21.738,19.156-1.5,11.972,2.676,26.292-4.789,35.917,4.46,4.038,15.728,3.9,15.728,3.9h0s.469,6.761-.469,7.888-3.709,2.207-5.634,2.582a108.938,108.938,0,0,0-12.16,3.38C9.163,85.295,2.215,92.1,2.215,101.492h37.7c1.033-3.756,8.122-10.47,15.024-13.991,4.225-2.16,8.4-2.019,11.6-2.441,0,0,1.784-2.817-4.085-3.9,0,0-8.075-2.019-9.014-3.146C52.545,76.985,53.155,70.646,53.155,70.646Z" transform="translate(0 19.64)" fill="#173b54"/>
    <path id="Path_248" data-name="Path 248" d="M39.489,70.646s-11.221-.376-15.681-4.366c7.277-11.033,3.333-23.9,4.836-35.917,1.5-11.972,8.31-19.156,21.926-19.156h.188c13.146,0,20.235,7.136,21.738,19.156C74,42.336,69.819,56.655,77.284,66.28c-4.46,4.038-15.728,3.9-15.728,3.9h0s-.469,6.761.469,7.888,3.709,2.207,5.634,2.582a108.939,108.939,0,0,1,12.16,3.38C83.481,85.295,90.43,92.1,90.43,101.492h-37.7C51.7,97.736,44.607,91.023,37.7,87.5c-4.225-2.16-8.4-2.019-11.6-2.441,0,0-1.784-2.817,4.085-3.9,0,0,8.075-2.019,9.014-3.146C40.1,76.985,39.489,70.646,39.489,70.646Z" transform="translate(122.59 19.64)" fill="#173b54"/>
  </g>
</svg>
