<svg id="Component_63_9" data-name="Component 63 – 9" xmlns="http://www.w3.org/2000/svg" width="86.616" height="98.793" viewBox="0 0 86.616 98.793">
  <path id="Path_233" data-name="Path 233" d="M-6061.107,5292.548l-43,24.306v50.183l43,24.3,42.366-24.631,1.248-49.323Z" transform="translate(6104.109 -5292.548)" fill="#e63312"/>
  <path id="Icon_ionic-ios-arrow-round-up" data-name="Icon ionic-ios-arrow-round-up" d="M42.807,25.359a2.19,2.19,0,0,1-3.083.017L29.519,15.2V53.963a2.178,2.178,0,0,1-4.357,0V15.2l-10.2,10.188a2.205,2.205,0,0,1-3.083-.017,2.169,2.169,0,0,1,.017-3.066L25.8,8.5h0a2.446,2.446,0,0,1,.687-.452,2.079,2.079,0,0,1,.838-.168,2.184,2.184,0,0,1,1.525.62L42.756,22.31A2.135,2.135,0,0,1,42.807,25.359Z" transform="translate(15.974 12.997)" fill="#fff"/>
</svg>
