<svg xmlns="http://www.w3.org/2000/svg" width="212.496" height="171.19" viewBox="0 0 212.496 171.19">
  <g id="Group_230" data-name="Group 230" transform="translate(-1007.504 -2275.81)">
    <path id="Icon_awesome-key" data-name="Icon awesome-key" d="M137,47.094A47.119,47.119,0,0,1,81.122,93.366L74.7,100.595a6.422,6.422,0,0,1-4.8,2.155h-9.96v10.7a6.422,6.422,0,0,1-6.422,6.422h-10.7v10.7A6.422,6.422,0,0,1,36.391,137H6.422A6.422,6.422,0,0,1,0,130.578V109.691a6.423,6.423,0,0,1,1.881-4.541L45.175,61.855A47.1,47.1,0,1,1,137,47.094ZM89.906,34.25A12.844,12.844,0,1,0,102.75,21.406,12.844,12.844,0,0,0,89.906,34.25Z" transform="translate(1083 2310)" fill="#173b54"/>
    <path id="Icon_awesome-hard-hat" data-name="Icon awesome-hard-hat" d="M117.21,59.2a46.885,46.885,0,0,0-29.1-43.373L78.14,35.756V8.407A3.907,3.907,0,0,0,74.233,4.5H50.791a3.907,3.907,0,0,0-3.907,3.907V35.756L36.919,15.825A46.885,46.885,0,0,0,7.814,59.2V74.826h109.4Zm3.907,23.442H3.907A3.907,3.907,0,0,0,0,86.547v7.814a3.907,3.907,0,0,0,3.907,3.907h117.21a3.907,3.907,0,0,0,3.907-3.907V86.547A3.907,3.907,0,0,0,121.117,82.64Z" transform="translate(1031.277 2271.443) rotate(14)" fill="#173b54"/>
  </g>
</svg>
