<svg xmlns="http://www.w3.org/2000/svg" width="36" height="36" viewBox="0 0 36 36">
  <g id="Group_537" data-name="Group 537" transform="translate(-650 -20)">
    <g id="Ellipse_113" data-name="Ellipse 113" transform="translate(650 20)" stroke="#000" stroke-width="1">
      <circle cx="18" cy="18" r="18" stroke="none"/>
      <circle cx="18" cy="18" r="17.5" fill="none"/>
    </g>
    <path id="Icon_awesome-exclamation" data-name="Icon awesome-exclamation" d="M5.506,11.829A2.191,2.191,0,1,1,3.316,9.639,2.193,2.193,0,0,1,5.506,11.829ZM1.379.69l.372,7.448a.657.657,0,0,0,.656.624H4.224a.657.657,0,0,0,.656-.624L5.253.69A.657.657,0,0,0,4.6,0H2.035A.657.657,0,0,0,1.379.69Z" transform="translate(664.684 30.99)" fill="#fff"/>
  </g>
</svg>
