<svg xmlns="http://www.w3.org/2000/svg" width="175.803" height="123.06" viewBox="0 0 175.803 123.06">
  <path id="awesome-money-bill-wave" d="M170.625,8.419A81.344,81.344,0,0,0,138.649,2.25c-33.833,0-67.664,17.124-101.5,17.124A83.343,83.343,0,0,1,11.7,15.605a9.392,9.392,0,0,0-2.843-.445A8.741,8.741,0,0,0,0,23.9v87.148a8.735,8.735,0,0,0,5.175,8.092,81.3,81.3,0,0,0,31.976,6.172c33.833,0,67.667-17.127,101.5-17.127a83.343,83.343,0,0,1,25.45,3.769,9.392,9.392,0,0,0,2.843.445,8.741,8.741,0,0,0,8.859-8.738V16.515A8.746,8.746,0,0,0,170.625,8.419ZM13.185,29.779a95.592,95.592,0,0,0,17.228,2.453A17.6,17.6,0,0,1,13.185,46.39Zm0,78.286V94.941a17.574,17.574,0,0,1,17.5,16.866A66.36,66.36,0,0,1,13.185,108.065ZM87.9,90.15c-12.138,0-21.975-11.809-21.975-26.37S75.764,37.41,87.9,37.41s21.975,11.806,21.975,26.37S100.033,90.15,87.9,90.15Zm74.715,7.631a94.444,94.444,0,0,0-14.921-2.318,17.543,17.543,0,0,1,14.921-13.537Zm0-64.857a17.545,17.545,0,0,1-15.33-16.907,66.03,66.03,0,0,1,15.33,3.478Z" transform="translate(0 -2.25)" fill="#173b54"/>
</svg>
