<svg id="Group_260" data-name="Group 260" xmlns="http://www.w3.org/2000/svg" xmlns:xlink="http://www.w3.org/1999/xlink" width="157.718" height="40.1" viewBox="0 0 157.718 40.1">
  <defs>
    <clipPath id="clip-path">
      <rect id="Rectangle_89" data-name="Rectangle 89" width="157.718" height="40.1" fill="none"/>
    </clipPath>
    <clipPath id="clip-path-2">
      <rect id="Rectangle_88" data-name="Rectangle 88" width="230.584" height="76.861" fill="none"/>
    </clipPath>
  </defs>
  <g id="Group_152" data-name="Group 152">
    <g id="Group_151" data-name="Group 151" clip-path="url(#clip-path)">
      <path id="Path_140" data-name="Path 140" d="M445.419,66.5l-3.325,13.476L438.683,66.5" transform="translate(-305.187 -66.382)" fill="#cc0019"/>
      <g id="Group_150" data-name="Group 150" transform="translate(-36.433 -18.381)">
        <g id="Group_149" data-name="Group 149" clip-path="url(#clip-path-2)">
          <path id="Path_141" data-name="Path 141" d="M395.849,70.828a4.3,4.3,0,0,1-4.654,4.315,4.323,4.323,0,1,1,4.654-4.315m-8.913,7.721h8.628v27.758h-8.628Z" transform="translate(-350.276 -47.975)" fill="#cc0019"/>
          <path id="Path_142" data-name="Path 142" d="M419.2,84.744a20.049,20.049,0,0,0-6.66-2.7l-1.089-.277a51.608,51.608,0,0,1-7.708-2.278c-.938-.46-1.017-.742-1.017-1.5,0-2.407,3.013-2.594,3.938-2.594,4.7,0,5.461,1.942,5.581,4.03l.08,1.359h10.269V79.332c0-7.945-5.962-12.879-15.625-12.879-7.315,0-14.7,4.184-14.7,12.183a9.757,9.757,0,0,0,3.9,8.171,22.035,22.035,0,0,0,7.785,3.319c.778.208,1.562.4,2.314.583,4.462,1.092,7.171,1.9,7.171,3.9,0,2.777-4.207,2.992-5.492,2.992-2.4,0-6.437-.665-6.437-5.132V91.124H391.112L391.1,92.5a12.8,12.8,0,0,0,3.591,9.4c2.977,3.008,7.582,4.654,12.971,4.654,4.932,0,9.054-1.243,11.916-3.583a11.563,11.563,0,0,0,4.3-9.255,10.311,10.311,0,0,0-4.672-8.972" transform="translate(-343.397 -48.072)" fill="#fff"/>
          <path id="Path_143" data-name="Path 143" d="M452.585,69.235v0l-.036-.021a18.956,18.956,0,0,0-4.6-1.962l-.044-.013c-.159-.044-.318-.087-.478-.126s-.313-.074-.473-.11L446.94,67a17.742,17.742,0,0,0-3.948-.444v-.044h0v.067l-41.765.028v.434a15.274,15.274,0,0,1,2.268,1.577,12.24,12.24,0,0,1,4.2,6.814h3.054v30.818h9.935V75.379l22.3.08v0a10.83,10.83,0,0,1,3.411.609,11.025,11.025,0,0,1,6.979,10.387c0,6.157-4.749,11.166-10.575,11.166s-10.572-5.05-10.572-11.207a11.316,11.316,0,0,1,4.911-9.36H425.6a20.46,20.46,0,0,0-2.237,9.36c0,11.045,8.718,20.05,19.431,20.05s19.434-8.975,19.434-20.019a20,20,0,0,0-5.651-14.05,19.423,19.423,0,0,0-3.994-3.157" transform="translate(-327.506 -47.987)" fill="#fff"/>
          <path id="Path_144" data-name="Path 144" d="M448.34,87.433a10.856,10.856,0,0,0,2.183-7.022c.038-2.378-.424-5.443-1.6-7.29a14.163,14.163,0,0,0-3.511-4.336c-1.6-1.331-3.776-2.278-8.076-2.278H420.574a23.58,23.58,0,0,1,6.8,4.731,21.582,21.582,0,0,1,3.033,3.968l6.573.005a4.1,4.1,0,0,1,2.186.521,5.456,5.456,0,0,1,1.254,1.392,5.311,5.311,0,0,1,.783,3.283,7.706,7.706,0,0,1-1.1,3.8,4.063,4.063,0,0,1-1.058,1.156c-.323.231-.778.372-2.124.393l-3.457,0c.008.234.013.467.013.7a21.654,21.654,0,0,1-1.182,7.069l6.578,12.725h11.81L443.5,91.73a27.259,27.259,0,0,0,4.837-4.3" transform="translate(-297.159 -47.987)" fill="#fff"/>
          <path id="Path_145" data-name="Path 145" d="M458.17,66.507l-5.014,20.027-5.091-20.027H431.616v3.724a19.538,19.538,0,0,1,1.133,1.708l.211.336c1.418,2.237,1.88,5.692,1.842,8.178a12.478,12.478,0,0,1-2.522,8.006c-.2.257-.46.519-.663.776v2.818h9.732V81.841l7.7,24.607h7.508l7.706-24.607v24.607h9.732V66.507Z" transform="translate(-279.839 -47.987)" fill="#fff"/>
        </g>
      </g>
    </g>
  </g>
</svg>
