<svg id="Group_257" data-name="Group 257" xmlns="http://www.w3.org/2000/svg" xmlns:xlink="http://www.w3.org/1999/xlink" width="426.481" height="65.529" viewBox="0 0 426.481 65.529">
  <defs>
    <clipPath id="clip-path">
      <rect id="Rectangle_64" data-name="Rectangle 64" width="426.481" height="65.529" fill="none"/>
    </clipPath>
    <clipPath id="clip-path-5">
      <rect id="Rectangle_56" data-name="Rectangle 56" width="56.751" height="65.531" fill="none"/>
    </clipPath>
    <clipPath id="clip-path-6">
      <rect id="Rectangle_57" data-name="Rectangle 57" width="47.293" height="54.609" fill="none"/>
    </clipPath>
    <clipPath id="clip-path-7">
      <rect id="Rectangle_58" data-name="Rectangle 58" width="37.834" height="43.687" fill="none"/>
    </clipPath>
    <clipPath id="clip-path-8">
      <rect id="Rectangle_59" data-name="Rectangle 59" width="4.73" height="32.765" fill="none"/>
    </clipPath>
    <clipPath id="clip-path-9">
      <rect id="Rectangle_60" data-name="Rectangle 60" width="4.729" height="27.305" fill="none"/>
    </clipPath>
    <clipPath id="clip-path-10">
      <rect id="Rectangle_61" data-name="Rectangle 61" width="4.729" height="21.844" fill="none"/>
    </clipPath>
  </defs>
  <g id="Group_87" data-name="Group 87">
    <g id="Group_86" data-name="Group 86" clip-path="url(#clip-path)">
      <g id="Group_85" data-name="Group 85">
        <g id="Group_84" data-name="Group 84" clip-path="url(#clip-path)">
          <g id="Group_63" data-name="Group 63">
            <g id="Group_62" data-name="Group 62" clip-path="url(#clip-path)">
              <line id="Line_1" data-name="Line 1" y2="65.531" transform="translate(260.614 -0.002)" fill="none" stroke="#fff" stroke-width="0.663"/>
            </g>
          </g>
          <text id="PROJECTS" transform="translate(276.942 42.864)" fill="#fff" font-size="30" font-family="SegoeUI, Segoe UI"><tspan x="0" y="0" letter-spacing="-0.061em">P</tspan><tspan y="0" letter-spacing="-0.052em">R</tspan><tspan y="0" letter-spacing="-0.049em">O</tspan><tspan y="0" letter-spacing="-0.048em">J</tspan><tspan y="0" letter-spacing="-0.059em">E</tspan><tspan y="0" letter-spacing="-0.021em">C</tspan><tspan y="0" letter-spacing="-0.044em">T</tspan><tspan y="0">S</tspan></text>
          <g id="Group_83" data-name="Group 83">
            <g id="Group_82" data-name="Group 82" clip-path="url(#clip-path)">
              <path id="Path_86" data-name="Path 86" d="M261.79,52.535a13.273,13.273,0,1,1,0-17.042l5.974-3.45a20.1,20.1,0,1,0,0,23.939Z" transform="translate(-52.991 -11.249)" fill="#fff"/>
              <path id="Path_87" data-name="Path 87" d="M211.763,24.3h6.8V56.479H234.82v6.048H211.763Z" transform="translate(-83.981 -10.648)" fill="#fff"/>
              <path id="Path_88" data-name="Path 88" d="M212.313,32.729a13.358,13.358,0,0,0-3.365-2.2,9.094,9.094,0,0,0-3.971-.945,9.776,9.776,0,0,0-2.378.3,7.322,7.322,0,0,0-2.16.92,5.087,5.087,0,0,0-1.6,1.621,4.471,4.471,0,0,0-.622,2.4,4.283,4.283,0,0,0,.542,2.217,4.912,4.912,0,0,0,1.485,1.564,9.965,9.965,0,0,0,2.3,1.135q1.352.489,2.972.973,1.838.593,3.809,1.351a14.834,14.834,0,0,1,3.622,2,9.916,9.916,0,0,1,2.7,3.134,9.538,9.538,0,0,1,1.056,4.7,12.01,12.01,0,0,1-1.135,5.376,11.092,11.092,0,0,1-3.026,3.809,12.928,12.928,0,0,1-4.431,2.271,18.68,18.68,0,0,1-5.35.755,20.1,20.1,0,0,1-7.292-1.377,14.1,14.1,0,0,1-5.836-4.079L193.709,54a17.9,17.9,0,0,0,4.541,3.2,10.586,10.586,0,0,0,4.618,1.135,10.462,10.462,0,0,0,2.432-.3,6.45,6.45,0,0,0,2.242-1,5.6,5.6,0,0,0,1.621-1.754,5.085,5.085,0,0,0,.622-2.62,4.247,4.247,0,0,0-.7-2.512,6.3,6.3,0,0,0-1.89-1.731,13.539,13.539,0,0,0-2.81-1.269q-1.618-.539-3.4-1.135a33.747,33.747,0,0,1-3.457-1.295,11.5,11.5,0,0,1-3.108-2,9.642,9.642,0,0,1-2.242-3.051,10.46,10.46,0,0,1-.863-4.513,9.9,9.9,0,0,1,1.215-5.024,10.768,10.768,0,0,1,3.188-3.486,14.211,14.211,0,0,1,4.485-2.052,19.621,19.621,0,0,1,5.106-.676,18.21,18.21,0,0,1,5.915,1.025,14.464,14.464,0,0,1,5.214,3.082Z" transform="translate(-118.693 -11.249)" fill="#fff"/>
              <path id="Path_89" data-name="Path 89" d="M243.946,24.3a22.557,22.557,0,0,1,6.38,5.941h5.967V62.527h6.8V30.238h11.718V24.3Z" transform="translate(-33.5 -10.648)" fill="#fff"/>
              <path id="Path_90" data-name="Path 90" d="M221.66,24.3h25.325v5.94H228.464v9.72H244.62V45.68H228.464v10.8h18.521v6.048H221.66Z" transform="translate(-68.457 -10.648)" fill="#fff"/>
              <path id="Path_91" data-name="Path 91" d="M200.982,24.3h25.325v5.94H207.786v9.72h16.156V45.68H207.786v10.8h18.521v6.048H200.982Z" transform="translate(-100.891 -10.648)" fill="#fff"/>
              <g id="Group_66" data-name="Group 66" transform="translate(0 -0.001)" opacity="0.4">
                <g id="Group_65" data-name="Group 65">
                  <g id="Group_64" data-name="Group 64" clip-path="url(#clip-path-5)">
                    <path id="Path_92" data-name="Path 92" d="M190.39,79.053,166.744,65.4V38.1L190.39,24.444,214.036,38.1h0l4.73-2.731L190.39,18.983,162.015,35.365V68.131L190.39,84.514l28.376-16.382-4.73-2.73Z" transform="translate(-162.015 -18.983)" fill="#fff"/>
                  </g>
                </g>
              </g>
              <g id="Group_69" data-name="Group 69" transform="translate(4.729 5.46)" opacity="0.6">
                <g id="Group_68" data-name="Group 68">
                  <g id="Group_67" data-name="Group 67" clip-path="url(#clip-path-6)">
                    <path id="Path_93" data-name="Path 93" d="M187.5,21.109,163.856,34.761v27.3L187.5,75.718l23.646-13.652-4.729-2.73L187.5,70.257,168.585,59.335V37.492L187.5,26.57l18.917,10.922,4.729-2.73h0Z" transform="translate(-163.856 -21.109)" fill="#fff"/>
                  </g>
                </g>
              </g>
              <g id="Group_72" data-name="Group 72" transform="translate(9.458 10.921)" opacity="0.8">
                <g id="Group_71" data-name="Group 71">
                  <g id="Group_70" data-name="Group 70" clip-path="url(#clip-path-7)">
                    <path id="Path_94" data-name="Path 94" d="M184.614,61.461,170.426,53.27V36.887L184.614,28.7,198.8,36.887l4.729-2.73L184.614,23.235,165.7,34.157V56l18.917,10.922L203.531,56,198.8,53.27Z" transform="translate(-165.697 -23.235)" fill="#fff"/>
                  </g>
                </g>
              </g>
              <path id="Path_95" data-name="Path 95" d="M167.538,33.552V49.935l14.188,8.191,14.188-8.191-4.729-2.73-9.458,5.461L172.268,47.2V36.283l9.458-5.461,9.458,5.461,4.729-2.73-14.188-8.191Z" transform="translate(-153.35 -8.979)" fill="#fff"/>
              <g id="Group_75" data-name="Group 75" transform="translate(52.022 16.382)" opacity="0.4">
                <g id="Group_74" data-name="Group 74">
                  <g id="Group_73" data-name="Group 73" clip-path="url(#clip-path-8)">
                    <path id="Path_96" data-name="Path 96" d="M182.268,28.092V55.4l4.73,2.73V25.361Z" transform="translate(-182.268 -25.361)" fill="#dd190a"/>
                  </g>
                </g>
              </g>
              <g id="Group_78" data-name="Group 78" transform="translate(47.293 19.112)" opacity="0.6">
                <g id="Group_77" data-name="Group 77">
                  <g id="Group_76" data-name="Group 76" clip-path="url(#clip-path-9)">
                    <path id="Path_97" data-name="Path 97" d="M180.427,51h0l4.729,2.731v-27.3l-4.729,2.73Z" transform="translate(-180.427 -26.424)" fill="#dd190a"/>
                  </g>
                </g>
              </g>
              <g id="Group_81" data-name="Group 81" transform="translate(42.563 21.842)" opacity="0.8">
                <g id="Group_80" data-name="Group 80">
                  <g id="Group_79" data-name="Group 79" clip-path="url(#clip-path-10)">
                    <path id="Path_98" data-name="Path 98" d="M183.315,27.487l-4.73,2.73V46.6l4.73,2.73Z" transform="translate(-178.586 -27.487)" fill="#dd190a"/>
                  </g>
                </g>
              </g>
              <path id="Path_99" data-name="Path 99" d="M176.744,42.2l4.729,2.73V28.55l-4.729,2.73Z" transform="translate(-138.91 -3.977)" fill="#dd190a"/>
            </g>
          </g>
        </g>
      </g>
    </g>
  </g>
</svg>
