<svg id="Group_262" data-name="Group 262" xmlns="http://www.w3.org/2000/svg" xmlns:xlink="http://www.w3.org/1999/xlink" width="333.257" height="65.529" viewBox="0 0 333.257 65.529">
  <defs>
    <clipPath id="clip-path">
      <rect id="Rectangle_92" data-name="Rectangle 92" width="333.257" height="65.529" fill="none"/>
    </clipPath>
    <clipPath id="clip-path-2">
      <rect id="Rectangle_91" data-name="Rectangle 91" width="333.544" height="65.529" fill="none"/>
    </clipPath>
  </defs>
  <g id="Group_156" data-name="Group 156" clip-path="url(#clip-path)">
    <rect id="Rectangle_90" data-name="Rectangle 90" width="1.705" height="65.529" transform="translate(176.654 0)" fill="#fff"/>
    <path id="Path_146" data-name="Path 146" d="M290.341,66.485,287.006,80l-3.422-13.517" transform="translate(-149.683 -53.688)" fill="#cc0019"/>
    <g id="Group_155" data-name="Group 155" transform="translate(-0.144)">
      <g id="Group_154" data-name="Group 154" clip-path="url(#clip-path-2)">
        <path id="Path_147" data-name="Path 147" d="M240.621,70.83a4.316,4.316,0,0,1-4.67,4.328,4.337,4.337,0,1,1,4.67-4.328m-8.941,7.744h8.656v27.843H231.68Z" transform="translate(-231.309 -53.662)" fill="#cc0019"/>
        <path id="Path_148" data-name="Path 148" d="M264.041,84.787a20.08,20.08,0,0,0-6.681-2.707l-1.092-.277a52.027,52.027,0,0,1-7.731-2.286c-.94-.46-1.02-.745-1.02-1.505,0-2.414,3.023-2.6,3.95-2.6,4.713,0,5.476,1.947,5.6,4.04l.08,1.367h10.3V79.36c0-7.968-5.977-12.92-15.671-12.92-7.338,0-14.744,4.2-14.744,12.221a9.78,9.78,0,0,0,3.909,8.194,22.04,22.04,0,0,0,7.806,3.329c.781.208,1.567.4,2.322.586,4.474,1.1,7.192,1.906,7.192,3.912,0,2.784-4.218,3-5.507,3-2.407,0-6.457-.668-6.457-5.147V91.188H235.869l-.015,1.377a12.823,12.823,0,0,0,3.6,9.429c2.985,3.018,7.6,4.67,13.007,4.67,4.95,0,9.082-1.246,11.954-3.593a11.6,11.6,0,0,0,4.31-9.285,10.342,10.342,0,0,0-4.688-9" transform="translate(-224.41 -53.759)" fill="#fff"/>
        <path id="Path_149" data-name="Path 149" d="M297.53,69.231v0l-.036-.021a18.97,18.97,0,0,0-4.616-1.97l-.046-.013c-.159-.044-.318-.085-.478-.126s-.316-.075-.475-.11l-.013-.005a17.991,17.991,0,0,0-3.961-.447V66.5h0v.067l-41.891.028v.434a15.416,15.416,0,0,1,2.273,1.582,12.262,12.262,0,0,1,4.218,6.835h3.067v30.913h9.964V75.392l22.37.08v0a10.9,10.9,0,0,1,3.421.611,11.057,11.057,0,0,1,7,10.418c0,6.175-4.765,11.2-10.608,11.2s-10.6-5.065-10.6-11.24a11.352,11.352,0,0,1,4.924-9.388H270.465a20.511,20.511,0,0,0-2.245,9.388c0,11.078,8.743,20.112,19.49,20.112s19.493-9,19.493-20.081a20.084,20.084,0,0,0-5.666-14.094,19.534,19.534,0,0,0-4.007-3.164" transform="translate(-208.469 -53.673)" fill="#fff"/>
        <path id="Path_150" data-name="Path 150" d="M293.272,87.483a10.89,10.89,0,0,0,2.191-7.043c.036-2.384-.426-5.461-1.6-7.313a14.312,14.312,0,0,0-3.522-4.349c-1.6-1.333-3.791-2.283-8.1-2.283H265.421a23.666,23.666,0,0,1,6.825,4.744,21.714,21.714,0,0,1,3.041,3.981l6.594.005a4.094,4.094,0,0,1,2.194.524,5.458,5.458,0,0,1,1.259,1.395,5.365,5.365,0,0,1,.783,3.293,7.752,7.752,0,0,1-1.1,3.809,4.082,4.082,0,0,1-1.061,1.158c-.324.231-.781.375-2.129.4l-3.47-.005c.008.234.013.47.013.7a21.631,21.631,0,0,1-1.187,7.089l6.6,12.766h11.844l-7.2-14.561a27.393,27.393,0,0,0,4.852-4.31" transform="translate(-178.03 -53.673)" fill="#fff"/>
        <path id="Path_151" data-name="Path 151" d="M303.132,66.5,298.1,86.581,293,66.5H276.5V70.23a19.443,19.443,0,0,1,1.135,1.713l.213.336c1.42,2.245,1.885,5.71,1.847,8.2a12.489,12.489,0,0,1-2.53,8.029c-.2.259-.46.521-.665.781v2.825h9.763V81.876l7.719,24.681h7.531l7.731-24.681v24.681H319V66.5Z" transform="translate(-160.658 -53.673)" fill="#fff"/>
        <path id="Path_152" data-name="Path 152" d="M308.052,70.008h6.3a11.681,11.681,0,0,1,2.394.262,7.015,7.015,0,0,1,2.284.912,5.1,5.1,0,0,1,1.7,1.775,5.477,5.477,0,0,1,.665,2.825,5.682,5.682,0,0,1-.542,2.563A5.017,5.017,0,0,1,319.4,80.12a6.314,6.314,0,0,1-2.1,1.035,9.025,9.025,0,0,1-2.486.339h-4.724V91.869h-2.037Zm2.037,9.632h4.631a7.09,7.09,0,0,0,1.7-.2,4.408,4.408,0,0,0,1.485-.647A3.343,3.343,0,0,0,318.95,77.6a3.781,3.781,0,0,0,.4-1.821,3.6,3.6,0,0,0-.416-1.79,3.7,3.7,0,0,0-1.081-1.22,4.451,4.451,0,0,0-1.528-.7,7.225,7.225,0,0,0-1.729-.216h-4.508Z" transform="translate(-111.16 -48.162)" fill="#fff"/>
        <path id="Path_153" data-name="Path 153" d="M314.2,70.008h5.741c.29,0,.681.01,1.174.031a12,12,0,0,1,1.605.185,10.021,10.021,0,0,1,1.759.5,4.994,4.994,0,0,1,1.608.986,5.161,5.161,0,0,1,1.171,1.636,5.66,5.66,0,0,1,.465,2.409,5.519,5.519,0,0,1-.542,2.594A5,5,0,0,1,325.826,80a5.717,5.717,0,0,1-1.806.94,11.444,11.444,0,0,1-1.883.434l6.36,10.5h-2.314l-6.144-10.374h-3.8V91.869H314.2Zm2.037,9.632h4.323a7.152,7.152,0,0,0,2.61-.4,4.353,4.353,0,0,0,1.559-.986,3.147,3.147,0,0,0,.755-1.266,3.909,3.909,0,0,0,0-2.471,3.147,3.147,0,0,0-.755-1.266,4.353,4.353,0,0,0-1.559-.986,7.147,7.147,0,0,0-2.61-.4H316.24Z" transform="translate(-101.512 -48.162)" fill="#fff"/>
        <path id="Path_154" data-name="Path 154" d="M320.141,81.276a12.378,12.378,0,0,1,.832-4.6,10.994,10.994,0,0,1,2.317-3.627,10.5,10.5,0,0,1,3.565-2.394,12.61,12.61,0,0,1,9.17,0,10.5,10.5,0,0,1,3.565,2.394,10.954,10.954,0,0,1,2.317,3.627,13.135,13.135,0,0,1,0,9.216,10.9,10.9,0,0,1-2.317,3.645,10.312,10.312,0,0,1-3.565,2.376,12.788,12.788,0,0,1-9.17,0,10.31,10.31,0,0,1-3.565-2.376,10.943,10.943,0,0,1-2.317-3.645,12.488,12.488,0,0,1-.832-4.616m2.037,0a10.927,10.927,0,0,0,.647,3.8,9.037,9.037,0,0,0,1.854,3.057,8.554,8.554,0,0,0,2.918,2.037,10.323,10.323,0,0,0,7.688,0,8.569,8.569,0,0,0,2.915-2.037,9.038,9.038,0,0,0,1.855-3.057,11.465,11.465,0,0,0,0-7.6,9.014,9.014,0,0,0-1.855-3.057,8.575,8.575,0,0,0-2.915-2.039,10.356,10.356,0,0,0-7.688,0,8.56,8.56,0,0,0-2.918,2.039,9.012,9.012,0,0,0-1.854,3.057,10.912,10.912,0,0,0-.647,3.8" transform="translate(-92.198 -48.501)" fill="#fff"/>
        <path id="Path_155" data-name="Path 155" d="M340.718,85.445a19.331,19.331,0,0,1-.139,2.194,5.958,5.958,0,0,1-.74,2.268,4.966,4.966,0,0,1-1.793,1.79,6.355,6.355,0,0,1-3.319.727,5.606,5.606,0,0,1-3.812-1.22,5.909,5.909,0,0,1-1.87-3.257l2.039-.37a3.476,3.476,0,0,0,3.642,2.995,4.258,4.258,0,0,0,1.837-.357,3.166,3.166,0,0,0,1.22-.971,4.109,4.109,0,0,0,.681-1.467,7.439,7.439,0,0,0,.216-1.837V70.008h2.037Z" transform="translate(-78.23 -48.162)" fill="#fff"/>
        <path id="Path_156" data-name="Path 156" d="M335.341,70.008H348.71v1.852H337.379v7.78H348v1.853H337.379v8.522H349.2v1.853H335.341Z" transform="translate(-68.355 -48.162)" fill="#fff"/>
        <path id="Path_157" data-name="Path 157" d="M360.621,88.779a9.257,9.257,0,0,1-3.645,3.057,10.8,10.8,0,0,1-4.474.927,12.017,12.017,0,0,1-4.587-.85,10.36,10.36,0,0,1-3.565-2.376,10.9,10.9,0,0,1-2.314-3.645,13.136,13.136,0,0,1,0-9.216,10.922,10.922,0,0,1,2.314-3.627,10.55,10.55,0,0,1,3.565-2.394,11.875,11.875,0,0,1,4.587-.863,10.9,10.9,0,0,1,4.151.786,8.243,8.243,0,0,1,3.38,2.64l-1.667,1.39a6.051,6.051,0,0,0-2.607-2.255,7.931,7.931,0,0,0-3.257-.709,9.612,9.612,0,0,0-3.845.74,8.585,8.585,0,0,0-2.918,2.039,9.006,9.006,0,0,0-1.852,3.057,11.421,11.421,0,0,0,0,7.6,9.03,9.03,0,0,0,1.852,3.057,8.578,8.578,0,0,0,2.918,2.037,9.569,9.569,0,0,0,3.845.742,7.973,7.973,0,0,0,3.473-.819,8.353,8.353,0,0,0,1.621-1.051,6.739,6.739,0,0,0,1.359-1.528Z" transform="translate(-59.166 -48.501)" fill="#fff"/>
        <path id="Path_158" data-name="Path 158" d="M356.406,71.861h-7.472V70.008h16.982v1.852h-7.472V91.868h-2.038Z" transform="translate(-47.035 -48.162)" fill="#fff"/>
        <path id="Path_159" data-name="Path 159" d="M357.733,88.162a5.2,5.2,0,0,0,2.086,2.068,6.108,6.108,0,0,0,2.918.681,5.783,5.783,0,0,0,1.914-.311,4.862,4.862,0,0,0,1.559-.863,4.067,4.067,0,0,0,1.048-1.343,3.951,3.951,0,0,0,.388-1.775,3.392,3.392,0,0,0-.48-1.883,3.808,3.808,0,0,0-1.279-1.22,9.6,9.6,0,0,0-1.808-.819c-.668-.226-1.359-.452-2.068-.678a21.541,21.541,0,0,1-2.068-.773,6.949,6.949,0,0,1-1.808-1.125,5.036,5.036,0,0,1-1.279-1.747,6.2,6.2,0,0,1-.48-2.592,5.605,5.605,0,0,1,.573-2.579,5.484,5.484,0,0,1,1.544-1.883,6.851,6.851,0,0,1,2.237-1.143,9.074,9.074,0,0,1,2.656-.385,8.6,8.6,0,0,1,3.319.632,6.322,6.322,0,0,1,2.641,2.116L367.584,73.8a4.856,4.856,0,0,0-4.261-2.16,6.655,6.655,0,0,0-1.883.262,4.643,4.643,0,0,0-1.559.773,3.759,3.759,0,0,0-1.066,1.282,3.9,3.9,0,0,0-.4,1.821,3.515,3.515,0,0,0,.832,2.515,5.872,5.872,0,0,0,2.083,1.39,21.878,21.878,0,0,0,2.718.9,12.982,12.982,0,0,1,2.718,1.035,5.849,5.849,0,0,1,2.086,1.806,5.385,5.385,0,0,1,.832,3.2,5.939,5.939,0,0,1-.555,2.625,5.812,5.812,0,0,1-1.5,1.929,6.493,6.493,0,0,1-2.178,1.189,8.241,8.241,0,0,1-2.561.4A10.251,10.251,0,0,1,358.907,92a7.263,7.263,0,0,1-3.118-2.545Z" transform="translate(-36.282 -48.501)" fill="#fff"/>
      </g>
    </g>
  </g>
</svg>
