<svg id="Group_259" data-name="Group 259" xmlns="http://www.w3.org/2000/svg" xmlns:xlink="http://www.w3.org/1999/xlink" width="106.861" height="65.529" viewBox="0 0 106.861 65.529">
  <defs>
    <clipPath id="clip-path">
      <rect id="Rectangle_78" data-name="Rectangle 78" width="106.861" height="65.529" fill="none"/>
    </clipPath>
    <clipPath id="clip-path-2">
      <rect id="Rectangle_77" data-name="Rectangle 77" width="106.861" height="65.738" fill="none"/>
    </clipPath>
  </defs>
  <g id="Group_121" data-name="Group 121" clip-path="url(#clip-path)">
    <g id="Group_120" data-name="Group 120" transform="translate(0 -0.105)">
      <g id="Group_119" data-name="Group 119" clip-path="url(#clip-path-2)">
        <path id="Path_124" data-name="Path 124" d="M149.64,162.79l-11.209,1.146V125.61c0-9.609,2.1-18.008,15.239-18.008,9.635,0,16.177,5.355,16.177,15.542v11.181c0,3.645-.717,7.135-4.058,10.023-4.084,3.534-9.275,4.585-16.149,4.916Zm6.19-23.225c3.534-.221,4.133-2.815,4.133-4.962V121.462a4.933,4.933,0,0,0-5.3-5.027c-3.7,0-5.024,2.1-5.024,5.081v18.278s2.656-.008,6.19-.229m53.182,17.209-7.415.747V125.513c0-8.024,1.41-15.039,10.231-15.039,6.47,0,10.862,4.472,10.862,12.982v9.337c0,3.044-.483,5.959-2.725,8.371-2.743,2.951-6.226,3.827-10.842,4.1Zm4.266-19.606c2.373-.185,2.777-2.353,2.777-4.146V122.048c0-1.983-1.076-4.2-3.56-4.2s-3.373,1.754-3.373,4.243v15.265s1.785-.005,4.156-.19M245,121.793c-.773-6.57-4.307-9.773-8.836-9.773-2.869,0-9.111,2.209-9.111,10.215,0,9,12.481,16.619,12.481,21.977a3.329,3.329,0,0,1-3.37,3.367,3.275,3.275,0,0,1-2.926-2.872l-6.185.884c1.271,9.057,7.719,9.005,10.051,8.718,2.373-.293,7.621-2.422,8.171-10.87.539-8.232-12.036-15.833-12.036-21.314a2.869,2.869,0,0,1,3.036-3.039c1.436,0,2.707.83,3.039,3.093Z" transform="translate(-138.43 -98.304)" fill="#fff"/>
        <path id="Path_125" data-name="Path 125" d="M174.3,110.925l-10.436,8.06c1.1,2.872,7.564,4.454,11.266-6.514a20.077,20.077,0,0,1,1.1,7.012c0,4.23-2.648,14.245-12.257,14.245s-12.257-10.38-12.257-15.239,3.588-14.466,12.257-14.466c7.233,0,10.326,6.9,10.326,6.9m-11.512-1.8c-2.217.935-1.96,3.478-1.3,5.44l5.355-3.093a2.884,2.884,0,0,0-4.058-2.348" transform="translate(-117.592 -103.917)" fill="#63a627"/>
      </g>
    </g>
  </g>
</svg>
