<svg id="Group_254" data-name="Group 254" xmlns="http://www.w3.org/2000/svg" xmlns:xlink="http://www.w3.org/1999/xlink" width="241.314" height="65.529" viewBox="0 0 241.314 65.529">
  <defs>
    <clipPath id="clip-path">
      <rect id="Rectangle_54" data-name="Rectangle 54" width="241.314" height="65.529" fill="none"/>
    </clipPath>
    <clipPath id="clip-path-4">
      <rect id="Rectangle_46" data-name="Rectangle 46" width="56.751" height="65.531" fill="none"/>
    </clipPath>
    <clipPath id="clip-path-5">
      <rect id="Rectangle_47" data-name="Rectangle 47" width="47.293" height="54.609" fill="none"/>
    </clipPath>
    <clipPath id="clip-path-6">
      <rect id="Rectangle_48" data-name="Rectangle 48" width="37.834" height="43.687" fill="none"/>
    </clipPath>
    <clipPath id="clip-path-7">
      <rect id="Rectangle_49" data-name="Rectangle 49" width="4.73" height="32.765" fill="none"/>
    </clipPath>
    <clipPath id="clip-path-8">
      <rect id="Rectangle_50" data-name="Rectangle 50" width="4.729" height="27.305" fill="none"/>
    </clipPath>
    <clipPath id="clip-path-9">
      <rect id="Rectangle_51" data-name="Rectangle 51" width="4.729" height="21.844" fill="none"/>
    </clipPath>
  </defs>
  <g id="Group_60" data-name="Group 60">
    <g id="Group_59" data-name="Group 59" clip-path="url(#clip-path)">
      <g id="Group_58" data-name="Group 58">
        <g id="Group_57" data-name="Group 57" clip-path="url(#clip-path)">
          <g id="Group_56" data-name="Group 56">
            <g id="Group_55" data-name="Group 55" clip-path="url(#clip-path)">
              <path id="Path_72" data-name="Path 72" d="M142.33,52.535a13.273,13.273,0,1,1,0-17.042l5.974-3.45a20.1,20.1,0,1,0,0,23.939Z" transform="translate(66.47 -11.249)" fill="#fff"/>
              <path id="Path_73" data-name="Path 73" d="M92.3,24.3h6.8V56.479H115.36v6.048H92.3Z" transform="translate(35.479 -10.648)" fill="#fff"/>
              <path id="Path_74" data-name="Path 74" d="M92.852,32.729a13.311,13.311,0,0,0-3.365-2.2,9.086,9.086,0,0,0-3.971-.945,9.792,9.792,0,0,0-2.378.3,7.322,7.322,0,0,0-2.16.92,5.087,5.087,0,0,0-1.6,1.621,4.471,4.471,0,0,0-.622,2.4,4.283,4.283,0,0,0,.542,2.217,4.912,4.912,0,0,0,1.485,1.564,10.071,10.071,0,0,0,2.3,1.135q1.352.489,2.972.973,1.838.593,3.809,1.351a14.786,14.786,0,0,1,3.622,2,9.917,9.917,0,0,1,2.7,3.134,9.538,9.538,0,0,1,1.056,4.7,12.011,12.011,0,0,1-1.135,5.376,11.063,11.063,0,0,1-3.026,3.809,12.927,12.927,0,0,1-4.431,2.271,18.68,18.68,0,0,1-5.35.755,20.1,20.1,0,0,1-7.292-1.377,14.1,14.1,0,0,1-5.836-4.079L74.248,54a17.9,17.9,0,0,0,4.541,3.2,10.6,10.6,0,0,0,4.621,1.135,10.458,10.458,0,0,0,2.43-.3,6.449,6.449,0,0,0,2.242-1A5.6,5.6,0,0,0,89.7,55.279a5.085,5.085,0,0,0,.622-2.62,4.265,4.265,0,0,0-.7-2.512,6.307,6.307,0,0,0-1.893-1.731,13.578,13.578,0,0,0-2.807-1.269q-1.622-.539-3.406-1.135a33.75,33.75,0,0,1-3.457-1.295,11.5,11.5,0,0,1-3.108-2,9.635,9.635,0,0,1-2.24-3.051,10.42,10.42,0,0,1-.866-4.513,9.9,9.9,0,0,1,1.215-5.024,10.768,10.768,0,0,1,3.188-3.486,14.21,14.21,0,0,1,4.485-2.052,19.621,19.621,0,0,1,5.106-.676,18.21,18.21,0,0,1,5.915,1.025,14.465,14.465,0,0,1,5.214,3.082Z" transform="translate(0.767 -11.249)" fill="#fff"/>
              <path id="Path_75" data-name="Path 75" d="M124.485,24.3a22.558,22.558,0,0,1,6.38,5.941h5.967V62.527h6.8V30.238h11.718V24.3Z" transform="translate(85.961 -10.648)" fill="#fff"/>
              <path id="Path_76" data-name="Path 76" d="M102.2,24.3h25.325v5.94H109v9.72H125.16V45.68H109v10.8h18.521v6.048H102.2Z" transform="translate(51.004 -10.648)" fill="#fff"/>
              <path id="Path_77" data-name="Path 77" d="M81.521,24.3h25.325v5.94H88.325v9.72h16.156V45.68H88.325v10.8h18.521v6.048H81.521Z" transform="translate(18.57 -10.648)" fill="#fff"/>
              <g id="Group_39" data-name="Group 39" transform="translate(0 -0.001)" opacity="0.4">
                <g id="Group_38" data-name="Group 38">
                  <g id="Group_37" data-name="Group 37" clip-path="url(#clip-path-4)">
                    <path id="Path_78" data-name="Path 78" d="M70.929,79.053,47.283,65.4V38.1L70.929,24.444,94.576,38.1h0L99.3,35.365,70.929,18.983,42.554,35.365V68.131L70.929,84.514,99.3,68.131,94.576,65.4Z" transform="translate(-42.554 -18.983)" fill="#fff"/>
                  </g>
                </g>
              </g>
              <g id="Group_42" data-name="Group 42" transform="translate(4.729 5.46)" opacity="0.6">
                <g id="Group_41" data-name="Group 41">
                  <g id="Group_40" data-name="Group 40" clip-path="url(#clip-path-5)">
                    <path id="Path_79" data-name="Path 79" d="M68.041,21.109,44.395,34.761v27.3L68.041,75.718,91.688,62.066l-4.729-2.73L68.041,70.257,49.124,59.335V37.492L68.041,26.57,86.958,37.492l4.729-2.73h0Z" transform="translate(-44.395 -21.109)" fill="#fff"/>
                  </g>
                </g>
              </g>
              <g id="Group_45" data-name="Group 45" transform="translate(9.458 10.921)" opacity="0.8">
                <g id="Group_44" data-name="Group 44">
                  <g id="Group_43" data-name="Group 43" clip-path="url(#clip-path-6)">
                    <path id="Path_80" data-name="Path 80" d="M65.153,61.461,50.965,53.27V36.887L65.153,28.7l14.188,8.191,4.729-2.73L65.153,23.235,46.236,34.157V56L65.153,66.922,84.07,56l-4.729-2.73Z" transform="translate(-46.236 -23.235)" fill="#fff"/>
                  </g>
                </g>
              </g>
              <path id="Path_81" data-name="Path 81" d="M48.077,33.552V49.935l14.188,8.191,14.188-8.191-4.73-2.73-9.458,5.461L52.807,47.2V36.283l9.459-5.461,9.458,5.461,4.73-2.73L62.265,25.361Z" transform="translate(-33.89 -8.979)" fill="#fff"/>
              <g id="Group_48" data-name="Group 48" transform="translate(52.022 16.382)" opacity="0.4">
                <g id="Group_47" data-name="Group 47">
                  <g id="Group_46" data-name="Group 46" clip-path="url(#clip-path-7)">
                    <path id="Path_82" data-name="Path 82" d="M62.807,28.092V55.4l4.729,2.73V25.361Z" transform="translate(-62.807 -25.361)" fill="#dd190a"/>
                  </g>
                </g>
              </g>
              <g id="Group_51" data-name="Group 51" transform="translate(47.293 19.112)" opacity="0.6">
                <g id="Group_50" data-name="Group 50">
                  <g id="Group_49" data-name="Group 49" clip-path="url(#clip-path-8)">
                    <path id="Path_83" data-name="Path 83" d="M60.966,51h0L65.7,53.729v-27.3l-4.729,2.73Z" transform="translate(-60.966 -26.424)" fill="#dd190a"/>
                  </g>
                </g>
              </g>
              <g id="Group_54" data-name="Group 54" transform="translate(42.563 21.842)" opacity="0.8">
                <g id="Group_53" data-name="Group 53">
                  <g id="Group_52" data-name="Group 52" clip-path="url(#clip-path-9)">
                    <path id="Path_84" data-name="Path 84" d="M63.854,27.487l-4.729,2.73V46.6l4.729,2.73Z" transform="translate(-59.125 -27.487)" fill="#dd190a"/>
                  </g>
                </g>
              </g>
              <path id="Path_85" data-name="Path 85" d="M57.283,42.2l4.729,2.73V28.55l-4.729,2.73Z" transform="translate(-19.449 -3.977)" fill="#dd190a"/>
            </g>
          </g>
        </g>
      </g>
    </g>
  </g>
</svg>
